<svg version="1.1" xmlns="http://www.w3.org/2000/svg" viewBox="0 0 256 256">
  <defs>
    <filter id="static-filter">
      <feTurbulence baseFrequency="0.15" numOctaves="10" seed="10" type="turbulence" result="turb"/>
      <feColorMatrix type="saturate" values="0" in="turb" result="desat"/>
    </filter>
    <clipPath id="scleraClip">
      <path d="M132.033,199.161c-39.161-0.677-72.803-14.119-102.847-41.097
      c-5.054-4.537-9.63-9.51-13.438-13.772
      c-7.347-8.226-7.31-18.398,0.095-26.549
      C48.69,81.59,86.964,63.259,129.6,63.259
      c3.196,0,6.465,0.103,9.715,0.306
      c34.844,2.183,67.016,17.263,95.621,44.822
      c3.112,2.998,6.254,6.378,9.34,10.05
      c6.748,8.028,6.652,17.834-0.254,25.592
      c-31.48,35.359-68.98,53.908-111.461,55.13z"/>
    </clipPath>
  </defs>

  <path fill="#105C87" d="M132.033,199.161c-39.161-0.677-72.803-14.119-102.847-41.097c-5.054-4.537-9.63-9.51-13.438-13.772c-7.347-8.226-7.31-18.398,0.095-26.549C48.69,81.59,86.964,63.259,129.6,63.259c3.196,0,6.465,0.103,9.715,0.306c34.844,2.183,67.016,17.263,95.621,44.822c3.112,2.998,6.254,6.378,9.34,10.05c6.748,8.028,6.652,17.834-0.254,25.592c-31.48,35.359-68.98,53.908-111.461,55.13z"/>
  <path fill="#125F8F" d="M235.492,125.818c-2.682-3.19-5.516-6.279-8.516-9.169 ..."/>

    <path fill="#FFFFFF" d="M235.492,125.818c-2.682-3.19-5.516-6.279-8.516-9.169
    c-24.756-23.848-53.699-39.461-88.381-41.633
    C92.077,72.103,54.95,91.76,24.333,125.458
    c-3.484,3.835-3.466,7.344-0.03,11.19
    c3.991,4.468,8.096,8.883,12.548,12.879
    c26.358,23.668,56.808,37.498,95.379,38.164
    c40.354-1.159,75.006-19.598,103.222-51.289
    C238.59,132.878,238.532,129.434,235.492,125.818z
    M102.693,148.701c-9.941,0-18.475-5.971-22.25-14.512
    c0.755,12.014,6.026,23.334,14.525,32.271
    c-10.577,0.008-43.281-20.765-55.631-35.547
    c15.745-16.294,34.001-28.594,56.359-36.173
    c-3.11,3.37-5.695,6.84-7.82,10.363
    c4.106-3.162,9.234-5.063,14.817-5.063
    c13.438,0,24.33,10.893,24.33,24.331
    C127.023,137.809,116.13,148.701,102.693,148.701z
    M164.021,167.366c20.432-24.343,20.176-48.133,0.119-72.5
    c22.045,7.435,40.131,19.716,56.264,36.209
    C204.348,147.535,186.23,159.788,164.021,167.366z"/>
  
  <rect x="0" y="50" width="256" height="160" fill="#E8F4FB" filter="url(#static-filter)" clip-path="url(#scleraClip)" opacity="0.7"/>
</svg>
